<svg width="32" height="32" viewBox="0 0 32 32" fill="none" xmlns="http://www.w3.org/2000/svg">
<g opacity="0.4">
<path d="M20.7686 8.51407H11.2312C9.70887 8.51407 8.47034 9.7526 8.47034 11.2749V20.8124C8.47034 22.3347 9.70887 23.5736 11.2312 23.5736H20.7686C22.291 23.5736 23.5298 22.3351 23.5298 20.8124V11.2749C23.5298 9.7526 22.2913 8.51407 20.7686 8.51407ZM15.9999 21.0013C13.2665 21.0013 11.0426 18.7774 11.0426 16.0436C11.0426 13.3103 13.2665 11.0863 15.9999 11.0863C18.7337 11.0863 20.9576 13.3103 20.9576 16.0436C20.9576 18.777 18.7333 21.0013 15.9999 21.0013ZM21.117 12.1113C20.4699 12.1113 19.9437 11.5851 19.9437 10.9384C19.9437 10.2916 20.4699 9.76543 21.117 9.76543C21.7637 9.76543 22.2899 10.2916 22.2899 10.9384C22.2899 11.5851 21.7637 12.1113 21.117 12.1113Z" fill="#424242"/>
<path d="M16.0003 13.1805C14.4223 13.1805 13.1375 14.4646 13.1375 16.0425C13.1375 17.6212 14.4223 18.9057 16.0003 18.9057C17.5789 18.9057 18.8627 17.6212 18.8627 16.0425C18.8627 14.465 17.5785 13.1805 16.0003 13.1805Z" fill="#424242"/>
<path d="M16 0C7.1638 0 0 7.1638 0 16C0 24.8362 7.1638 32 16 32C24.8362 32 32 24.8362 32 16C32 7.1638 24.8362 0 16 0ZM25.6245 20.8119C25.6245 23.4896 23.4465 25.6676 20.7687 25.6676H11.2313C8.55384 25.6676 6.37554 23.4896 6.37554 20.8119V11.2744C6.37554 8.59698 8.55384 6.41868 11.2313 6.41868H20.7687C23.4465 6.41868 25.6245 8.59698 25.6245 11.2744V20.8119Z" fill="#424242"/>
</g>
</svg>
