<svg width="32" height="32" viewBox="0 0 32 32" fill="none" xmlns="http://www.w3.org/2000/svg">
<g opacity="0.4">
<path d="M16 32C24.8366 32 32 24.8366 32 16C32 7.16344 24.8366 0 16 0C7.16344 0 0 7.16344 0 16C0 24.8366 7.16344 32 16 32Z" fill="#424242"/>
<path fill-rule="evenodd" clip-rule="evenodd" d="M15.3955 23.0173H16.6513C16.6513 23.0173 17.0306 22.9757 17.2243 22.7669C17.4025 22.5752 17.3968 22.2153 17.3968 22.2153C17.3968 22.2153 17.3723 20.5302 18.1543 20.2821C18.9253 20.0377 19.9153 21.9107 20.9646 22.6308C21.758 23.1759 22.361 23.0564 22.361 23.0564L25.1666 23.0173C25.1666 23.0173 26.6344 22.9269 25.9384 21.7729C25.8814 21.6785 25.5331 20.9193 23.8524 19.3591C22.0932 17.7263 22.3288 17.9904 24.4479 15.1659C25.7385 13.4458 26.2545 12.3956 26.0933 11.9458C25.9396 11.5174 24.9904 11.6307 24.9904 11.6307L21.8313 11.6503C21.8313 11.6503 21.5972 11.6184 21.4235 11.7222C21.2538 11.824 21.1445 12.0613 21.1445 12.0613C21.1445 12.0613 20.6446 13.3924 19.9777 14.5244C18.571 16.9131 18.0086 17.0392 17.7787 16.8909C17.2439 16.5452 17.3774 15.5022 17.3774 14.7612C17.3774 12.4464 17.7285 11.4812 16.6938 11.2314C16.3504 11.1484 16.0977 11.0936 15.2195 11.0848C14.0923 11.0731 13.1383 11.0882 12.5981 11.3529C12.2387 11.5288 11.9615 11.921 12.1303 11.9435C12.3391 11.9715 12.812 12.071 13.0627 12.4124C13.3864 12.8528 13.375 13.8419 13.375 13.8419C13.375 13.8419 13.561 16.5669 12.9406 16.9054C12.5148 17.1376 11.9307 16.6636 10.6766 14.4965C10.034 13.3864 9.54883 12.1594 9.54883 12.1594C9.54883 12.1594 9.45528 11.9301 9.28843 11.8075C9.08593 11.6589 8.80299 11.6115 8.80299 11.6115L5.8011 11.6312C5.8011 11.6312 5.35046 11.6438 5.18504 11.8397C5.03787 12.014 5.17335 12.3745 5.17335 12.3745C5.17335 12.3745 7.52352 17.8729 10.1846 20.6437C12.6246 23.1842 15.3955 23.0173 15.3955 23.0173Z" fill="#F2F2F2"/>
</g>
</svg>
